<?xml version="1.0" encoding="UTF-8" standalone="no"?>
<!-- Created with Inkscape (http://www.inkscape.org/) -->

<svg
   width="210mm"
   height="297mm"
   viewBox="0 0 210 297"
   version="1.1"
   id="svg287"
   inkscape:version="1.2.2 (b0a8486541, 2022-12-01)"
   sodipodi:docname="inkscape-draft.svg"
   xmlns:inkscape="http://www.inkscape.org/namespaces/inkscape"
   xmlns:sodipodi="http://sodipodi.sourceforge.net/DTD/sodipodi-0.dtd"
   xmlns="http://www.w3.org/2000/svg"
   xmlns:svg="http://www.w3.org/2000/svg">
  <sodipodi:namedview
     id="namedview289"
     pagecolor="#ffffff"
     bordercolor="#666666"
     borderopacity="1.0"
     inkscape:showpageshadow="2"
     inkscape:pageopacity="0.0"
     inkscape:pagecheckerboard="0"
     inkscape:deskcolor="#d1d1d1"
     inkscape:document-units="mm"
     showgrid="false"
     inkscape:zoom="0.67521728"
     inkscape:cx="613.13597"
     inkscape:cy="371.73219"
     inkscape:window-width="1920"
     inkscape:window-height="1011"
     inkscape:window-x="0"
     inkscape:window-y="0"
     inkscape:window-maximized="1"
     inkscape:current-layer="layer1" />
  <defs
     id="defs284">
    <rect
       x="231.447"
       y="464.80529"
       width="289.37701"
       height="113.18878"
       id="rect608" />
    <rect
       x="296.68994"
       y="505.62023"
       width="522.95851"
       height="278.22186"
       id="rect467" />
    <rect
       x="296.68994"
       y="505.62024"
       width="276.10272"
       height="62.67181"
       id="rect467-5" />
    <rect
       x="296.68994"
       y="505.62024"
       width="364.7045"
       height="142.06552"
       id="rect467-59" />
    <rect
       x="296.68994"
       y="505.62024"
       width="522.9585"
       height="278.22186"
       id="rect467-0" />
  </defs>
  <g
     inkscape:label="Layer 1"
     inkscape:groupmode="layer"
     id="layer1">
    <path
       style="fill:#000000;stroke-width:0.264583"
       d="m 105.85306,123.23367 c -0.87312,-0.42212 -1.66618,-0.77122 -1.76235,-0.77576 -0.0962,-0.005 -1.04867,-0.40939 -2.11667,-0.89965 -2.674,-1.22747 -6.03551,-2.63159 -8.55639,-3.57403 -1.16417,-0.43523 -3.1052,-1.21458 -4.3134,-1.73187 -1.2082,-0.5173 -4.12524,-1.66045 -6.48229,-2.54032 -5.27802,-1.97026 -5.67576,-2.15426 -7.24384,-3.3512 -1.63888,-1.251 -1.98226,-1.68452 -3.16825,-4.00002 l -0.99038,-1.93359 -0.0777,-3.88724 C 71.09909,98.402012 71.02651,86.215392 70.98057,73.458612 l -0.0835,-23.194146 0.80926,-0.12253 c 3.05034,-0.46183 10.67602,-2.74163 14.9126,-4.45832 5.27415,-2.137118 15.14271,-7.896716 18.29157,-10.675531 1.39892,-1.234525 2.55585,-1.987608 3.05349,-1.987608 0.24294,0 1.19166,0.636234 2.10827,1.413853 2.71763,2.305524 9.08401,6.398919 12.87901,8.280815 6.19779,3.073421 11.47269,4.971751 18.35599,6.605961 1.74625,0.4146 3.25102,0.86094 3.34394,0.99187 0.0929,0.13094 0.10887,0.66924 0.0354,1.19622 -0.0734,0.52699 -0.18047,12.090496 -0.23788,25.696696 -0.068,16.1238 -0.204,25.287678 -0.39043,26.315468 -0.57286,3.15826 -2.73531,6.20867 -5.38675,7.59872 -1.2013,0.6298 -2.33497,1.1048 -11.25495,4.71585 -3.56526,1.44331 -7.91104,3.23882 -9.65729,3.99003 -1.74625,0.7512 -4.26311,1.81755 -5.59303,2.36965 -1.32992,0.55209 -2.78252,1.1923 -3.228,1.42267 -1.05155,0.54377 -1.20433,0.52473 -3.08522,-0.38461 z m 4.17928,-7.02202 c 0.8854,-0.22943 2.0609,-0.64727 2.61223,-0.92853 l 1.00241,-0.5114 0.0718,-11.17615 c 0.0395,-6.146878 0.042,-11.225798 0.006,-11.286488 -0.0364,-0.0607 -0.51269,0.24482 -1.05834,0.6789 -1.56872,1.248 -4.76641,3.24223 -5.49,3.42384 -0.46769,0.11738 -0.8336,0.004 -1.25602,-0.38834 -1.32969,-1.23581 -4.3142,-3.73629 -4.45976,-3.73649 -0.0578,-7e-5 -0.068,5.08733 -0.0227,11.305338 0.061,8.3704 0.164,11.35652 0.39687,11.50208 0.29705,0.18568 3.13548,1.07953 4.28327,1.34885 1.06919,0.25087 2.34378,0.17546 3.91469,-0.23161 z m 9.71369,-3.83567 1.76433,-0.81323 0.16942,-11.37465 c 0.1652,-11.090788 0.11335,-11.793909 -0.0546,-12.523773 -0.28594,-1.242585 -0.0441,-1.190216 -0.3315,-1.130758 -0.53562,0.11081 -1.44049,0.789837 -2.52207,1.676113 l -1.1589,0.94963 0.0224,12.014958 c 0.0123,6.60822 0.0953,12.01495 0.1845,12.01495 0.0892,0 0.95608,-0.36596 1.92647,-0.81324 z m -22.55531,-11.49645 0.0689,-11.868798 -0.84841,-0.87534 c -0.46663,-0.48144 -0.9511,-0.87534 -1.07661,-0.87534 -0.1255,0 -0.69872,0.37813 -1.27382,0.84029 l -1.04562,0.84028 0.069,11.245418 0.0689,11.24542 1.71979,0.72359 c 0.94589,0.39798 1.83886,0.69428 1.98438,0.65845 0.1702,-0.0419 0.28916,-4.2989 0.33349,-11.93397 z m 30.80376,8.42679 c 0.91909,-0.38934 1.81991,-0.82063 2.00181,-0.95843 0.43372,-0.32858 0.49017,-49.565588 0.057,-49.709988 0.59207,-0.434242 0.11285,-0.09183 0.55951,-0.36578 0.48124,-0.30121 1.42576,-0.47189 2.73861,-0.4949 l 1.04001,-0.0182 -0.0649,24.5401 c -0.0412,15.56939 0.0281,24.540108 0.18944,24.540108 0.41867,0 3.75261,-2.17902 4.3116,-3.9943 l 0.44024,-1.42966 0.13639,-23.979758 0.13639,-23.979746 -1.63022,-0.34211 c -3.54693,-0.74433 -10.88853,-3.29606 -14.38358,-4.99932 -1.28036,-0.610887 -2.62155,-1.251221 -3.78309,-1.81117 l -1.45521,-0.723629 -0.10083,17.797555 c -0.0555,9.78865 -0.0194,17.79755 0.0802,17.79755 0.0995,0 0.61904,-0.29765 1.15443,-0.66145 0.53538,-0.36381 1.13088,-0.66146 1.32333,-0.66146 0.19246,0 1.41497,0.85162 2.71671,1.8925 l 2.36679,1.8925 0.0168,2.40698 c 0.0281,4.03788 0.20479,21.921138 0.22698,22.978328 0.0115,0.5457 0.0725,0.99219 0.13568,0.99219 0.0632,0 0.86684,-0.31855 1.78594,-0.7079 z M 88.78356,92.803092 c -0.006,-9.3206 0.0541,-17.05185 0.13362,-17.18057 0.0795,-0.12872 1.1247,-0.61 2.32256,-1.06951 1.19785,-0.45952 3.04111,-1.19281 4.09614,-1.62954 l 1.91823,-0.79405 v -1.98173 c 0,-1.49122 -0.0819,-1.94358 -0.33073,-1.82757 -0.1819,0.0848 -0.50932,0.22337 -0.7276,0.30794 -0.21829,0.0846 -2.89719,1.18854 -5.95313,2.45327 l -5.55625,2.29949 0.0502,8.99014 c 0.0276,4.94457 0.0574,12.75375 0.0661,17.35371 l 0.0159,8.363588 1.91823,0.81932 c 1.05503,0.45063 1.9496,0.82444 1.98794,0.83069 0.0383,0.006 0.0648,-7.61458 0.0587,-16.935178 z m -8.39362,4.18042 c -0.0347,-5.27514 0.008,-13.42022 0.0962,-18.10016 l 0.15929,-8.509 0.96217,-0.179 c 0.5292,-0.0984 1.97421,-0.59734 3.21113,-1.10866 1.23693,-0.51132 3.14193,-1.26645 4.23334,-1.67807 1.0914,-0.41161 3.175,-1.24363 4.6302,-1.84892 3.7464,-1.5583 6.74648,-2.64131 7.31676,-2.64131 0.46233,0 0.48845,0.36721 0.48845,6.86673 v 6.86674 l 1.52135,-1.00559 c 0.83675,-0.55307 1.78925,-1.14698 2.11667,-1.31979 0.5872,-0.30993 0.59531,-0.38669 0.59531,-5.63355 0,-4.75385 -0.0492,-5.35723 -0.46302,-5.6758 -0.25466,-0.19606 -1.90043,-1.06699 -3.65725,-1.93541 l -3.19423,-1.57895 -8.15629,3.29531 c -4.48596,1.81242 -8.3766,3.29531 -8.64587,3.29531 -0.43501,0 -0.48958,-0.23265 -0.48958,-2.08723 v -2.08722 l 0.92247,-0.17305 c 1.0816,-0.20291 4.4864,-1.59845 10.13399,-4.15367 2.22829,-1.00818 5.80161,-2.589176 7.94071,-3.513326 5.29449,-2.28738 8.51949,-3.85751 8.51949,-4.14781 0,-0.42746 0.69832,-0.26263 2.92488,0.69037 1.19791,0.51273 2.21022,0.89968 2.24958,0.8599 0.17671,-0.1786 0.19566,-7.801132 0.0201,-8.085184 -0.15733,-0.254566 -2.36009,-1.913866 -5.82442,-4.387426 -0.28741,-0.205211 -2.60141,1.293482 -4.54388,2.94291 -0.29894,0.253841 -0.6294,0.486135 -0.73435,0.51621 -0.10495,0.03007 -1.28911,0.700082 -2.63147,1.488903 -7.10231,4.173597 -15.99512,7.857797 -21.88753,9.067787 -1.23692,0.254 -2.2888,0.49066 -2.3375,0.52592 -0.0487,0.0353 -0.0804,10.797266 -0.0703,23.915586 0.0208,27.273938 -0.22985,24.645908 2.61856,27.454928 0.92226,0.9095 1.75816,1.65365 1.85755,1.65366 0.0994,2e-5 0.1523,-4.316 0.11758,-9.591138 z m 34.01841,-12.13733 0.61778,-0.47577 -1.23531,-0.87028 c -0.67943,-0.47866 -2.32617,-1.65402 -3.65942,-2.61191 l -2.42409,-1.74163 -1.50267,1.08017 c -0.82648,0.59409 -2.52402,1.77068 -3.77232,2.61464 l -2.26965,1.53448 1.15427,0.97907 c 0.63485,0.53848 1.89032,1.50573 2.78995,2.14944 0.89962,0.64372 1.93249,1.44546 2.29526,1.78167 l 0.65958,0.61128 3.36442,-2.28769 c 1.85043,-1.25823 3.64241,-2.50179 3.9822,-2.76347 z m -18.41101,-4.12226 c 0.98144,-0.60761 0.99219,-0.63284 0.99219,-2.33073 0,-0.94406 -0.0967,-1.71647 -0.21489,-1.71647 -0.2442,0 -2.23127,0.89261 -3.2247,1.44856 -0.3638,0.2036 -0.64955,0.49674 -0.635,0.65143 0.0145,0.15469 0.0443,1.06487 0.0661,2.02263 l 0.0397,1.74137 0.99219,-0.60127 c 0.5457,-0.33069 1.43867,-0.87768 1.98437,-1.21552 z m 17.92285,-14.58 -0.003,-10.236986 -2.35921,-0.98642 -2.35919,-0.98643 -1.40845,0.61915 c -0.77465,0.34053 -2.09102,0.90349 -2.92528,1.25101 -0.83427,0.34752 -1.51888,0.705826 -1.52136,0.796226 -0.002,0.0904 1.33494,0.84914 2.97205,1.68607 1.63711,0.83692 3.0729,1.60938 3.19065,1.71658 0.11775,0.10719 0.2056,2.56315 0.19524,5.45769 -0.0104,2.89453 0.0552,6.04345 0.14579,6.9976 l 0.16464,1.73481 1.75678,1.21471 c 0.96624,0.6681 1.84609,1.16033 1.95523,1.09385 0.10914,-0.0665 0.19724,-4.72752 0.19577,-10.35786 z"
       id="path223"
       inkscape:export-filename="path223.svg"
       inkscape:export-xdpi="96"
       inkscape:export-ydpi="96"
       sodipodi:nodetypes="scssssssccccsssssssscssssssssscscsccscssssccccssssccsscscssscccssscsccsccsscccsccccsssscccscccssscsscscsccscccccccssssscssssscssscssssssssssssccssccscsscsscssscsssssscccsssccccsscsscccsscc" />
    <g
       aria-label="enterprise

"
       transform="matrix(0.25681439,0,0,0.23839055,-22.211051,3.5162822)"
       id="text465"
       style="font-size:40px;line-height:1.25;white-space:pre;shape-inside:url(#rect467)">
      <path
         d="m 321.52041,535.20715 q 6.27044,0 10.78516,2.42457 4.51472,2.42457 6.93929,7.0229 2.50818,4.59832 2.50818,11.28679 v 6.01963 h -28.42601 q 0.16721,5.26717 2.9262,8.27698 2.84261,3.00981 7.85896,3.00981 4.2639,0 7.77535,-0.83605 3.51145,-0.91967 7.27371,-2.759 v 9.61468 q -3.26063,1.67212 -6.93929,2.42457 -3.67866,0.83606 -8.94583,0.83606 -6.77208,0 -11.95564,-2.50818 -5.09996,-2.59178 -8.10978,-7.77535 -2.9262,-5.18356 -2.9262,-13.04252 0,-8.02616 2.67539,-13.29334 2.67538,-5.35077 7.44092,-8.02616 4.84914,-2.67539 11.11959,-2.67539 z m 0.16721,8.86222 q -3.26063,0 -5.51799,2.34097 -2.17375,2.34096 -2.59178,7.27371 h 16.21954 q 0,-2.75899 -0.91966,-4.93275 -0.91967,-2.17375 -2.67539,-3.42784 -1.75573,-1.25409 -4.51472,-1.25409 z"
         style="font-size:83.6059px;-inkscape-font-specification:'sans-serif, @CTGR=46,wght=700';font-variation-settings:'CTGR' 46, 'wght' 700"
         id="path1889" />
      <path
         d="m 377.11833,535.20715 q 7.1901,0 11.454,4.01308 4.34751,3.92948 4.34751,12.7081 v 29.7637 h -12.87531 v -26.67028 q 0,-4.93275 -1.58851,-7.35732 -1.58851,-2.50818 -5.18357,-2.50818 -5.26717,0 -7.1901,3.92948 -1.92294,3.84587 -1.92294,11.11958 v 21.48672 H 351.2841 v -45.64882 h 9.8655 l 1.75572,5.85241 h 0.58524 q 1.50491,-2.34096 3.51145,-3.76227 2.09015,-1.5049 4.68193,-2.17375 2.59178,-0.75245 5.43439,-0.75245 z"
         style="font-size:83.6059px;-inkscape-font-specification:'sans-serif, @CTGR=46,wght=700';font-variation-settings:'CTGR' 46, 'wght' 700"
         id="path1891" />
      <path
         d="m 424.43929,572.57899 q 2.00654,0 3.84587,-0.41803 1.83933,-0.41803 3.67866,-1.00327 v 9.28025 q -2.00654,0.83606 -4.93275,1.4213 -2.8426,0.66885 -6.52126,0.66885 -4.01308,0 -7.19011,-1.33769 -3.17702,-1.3377 -5.01635,-4.59833 -1.83933,-3.34424 -1.83933,-9.19665 v -21.98835 h -5.6852 v -5.26717 l 6.68847,-4.1803 3.67866,-9.61468 h 8.19338 v 9.69829 h 12.12285 v 9.36386 h -12.12285 v 21.98835 q 0,2.59178 1.4213,3.92948 1.4213,1.25409 3.67866,1.25409 z"
         style="font-size:83.6059px;-inkscape-font-specification:'sans-serif, @CTGR=46,wght=700';font-variation-settings:'CTGR' 46, 'wght' 700"
         id="path1893" />
      <path
         d="m 459.47011,535.20715 q 6.27045,0 10.78517,2.42457 4.51471,2.42457 6.93929,7.0229 2.50817,4.59832 2.50817,11.28679 v 6.01963 h -28.42601 q 0.16722,5.26717 2.92621,8.27698 2.8426,3.00981 7.85896,3.00981 4.2639,0 7.77535,-0.83605 3.51144,-0.91967 7.27371,-2.759 v 9.61468 q -3.26063,1.67212 -6.93929,2.42457 -3.67866,0.83606 -8.94583,0.83606 -6.77208,0 -11.95565,-2.50818 -5.09996,-2.59178 -8.10977,-7.77535 -2.92621,-5.18356 -2.92621,-13.04252 0,-8.02616 2.67539,-13.29334 2.67539,-5.35077 7.44093,-8.02616 4.84914,-2.67539 11.11958,-2.67539 z m 0.16722,8.86222 q -3.26063,0 -5.51799,2.34097 -2.17376,2.34096 -2.59179,7.27371 h 16.21955 q 0,-2.75899 -0.91967,-4.93275 -0.91966,-2.17375 -2.67539,-3.42784 -1.75572,-1.25409 -4.51471,-1.25409 z"
         style="font-size:83.6059px;-inkscape-font-specification:'sans-serif, @CTGR=46,wght=700';font-variation-settings:'CTGR' 46, 'wght' 700"
         id="path1895" />
      <path
         d="m 514.5664,535.20715 q 1.00328,0 2.25736,0.0836 1.25409,0.0836 2.00655,0.25082 l -1.00328,11.70483 q -0.66884,-0.16721 -1.75572,-0.25082 -1.08688,-0.16721 -2.25736,-0.16721 -2.09015,0 -4.18029,0.66885 -2.09015,0.58524 -3.76227,1.92293 -1.67212,1.3377 -2.75899,3.59506 -1.00328,2.17375 -1.00328,5.43438 v 23.24244 h -12.8753 v -45.64882 h 9.78189 l 1.92293,7.69174 h 0.58524 q 1.3377,-2.34096 3.26063,-4.2639 1.92294,-1.92294 4.43112,-3.09342 2.50817,-1.17048 5.35077,-1.17048 z"
         style="font-size:83.6059px;-inkscape-font-specification:'sans-serif, @CTGR=46,wght=700';font-variation-settings:'CTGR' 46, 'wght' 700"
         id="path1897" />
      <path
         d="m 551.77099,535.20715 q 7.52454,0 12.03925,6.01962 4.59833,5.93602 4.59833,17.55724 0,7.77535 -2.25736,13.12613 -2.17375,5.26717 -6.01963,7.94256 -3.76226,2.67539 -8.69501,2.67539 -3.17702,0 -5.51799,-0.83606 -2.25736,-0.83606 -3.84587,-2.17375 -1.50491,-1.3377 -2.759,-2.8426 h -0.58524 q 0.25082,1.58851 0.41803,3.34423 0.16721,1.67212 0.16721,3.34424 v 18.3933 h -12.8753 v -65.71424 h 10.53434 l 1.75572,5.93602 h 0.58524 q 1.25409,-1.83933 2.92621,-3.34424 1.67212,-1.58851 4.01308,-2.50818 2.34097,-0.91966 5.51799,-0.91966 z m -4.3475,9.9491 q -2.92621,0 -4.68193,1.3377 -1.75573,1.33769 -2.59179,4.09668 -0.75245,2.67539 -0.83606,6.77208 v 1.3377 q 0,4.43111 0.75246,7.52453 0.83606,3.00981 2.59178,4.59832 1.83933,1.58852 4.93275,1.58852 2.59178,0 4.2639,-1.58852 1.67212,-1.58851 2.50818,-4.68193 0.91966,-3.09342 0.91966,-7.52453 0,-6.68847 -1.92293,-10.03271 -1.92294,-3.42784 -5.93602,-3.42784 z"
         style="font-size:83.6059px;-inkscape-font-specification:'sans-serif, @CTGR=46,wght=700';font-variation-settings:'CTGR' 46, 'wght' 700"
         id="path1899" />
      <path
         d="m 603.43945,535.20715 q 1.00327,0 2.25736,0.0836 1.25409,0.0836 2.00654,0.25082 l -1.00327,11.70483 q -0.66885,-0.16721 -1.75572,-0.25082 -1.08688,-0.16721 -2.25736,-0.16721 -2.09015,0 -4.1803,0.66885 -2.09014,0.58524 -3.76226,1.92293 -1.67212,1.3377 -2.759,3.59506 -1.00327,2.17375 -1.00327,5.43438 v 23.24244 h -12.87531 v -45.64882 h 9.78189 l 1.92294,7.69174 h 0.58524 q 1.33769,-2.34096 3.26063,-4.2639 1.92294,-1.92294 4.43111,-3.09342 2.50818,-1.17048 5.35078,-1.17048 z"
         style="font-size:83.6059px;-inkscape-font-specification:'sans-serif, @CTGR=46,wght=700';font-variation-settings:'CTGR' 46, 'wght' 700"
         id="path1901" />
      <path
         d="m 628.18676,536.04321 v 45.64882 h -12.87531 v -45.64882 z m -6.35405,-17.89167 q 2.8426,0 4.84915,1.3377 2.09014,1.25409 2.09014,4.76553 0,3.42785 -2.09014,4.76554 -2.00655,1.3377 -4.84915,1.3377 -2.9262,0 -4.93275,-1.3377 -2.00654,-1.33769 -2.00654,-4.76554 0,-3.51144 2.00654,-4.76553 2.00655,-1.3377 4.93275,-1.3377 z"
         style="font-size:83.6059px;-inkscape-font-specification:'sans-serif, @CTGR=46,wght=700';font-variation-settings:'CTGR' 46, 'wght' 700"
         id="path1903" />
      <path
         d="m 671.99631,568.14787 q 0,4.59833 -2.09014,7.85896 -2.00655,3.17702 -6.27045,4.84914 -4.18029,1.67212 -10.53434,1.67212 -4.68193,0 -8.10977,-0.66885 -3.42785,-0.58524 -6.93929,-2.00654 v -10.28353 q 3.76226,1.67212 7.94256,2.759 4.18029,1.08688 7.19011,1.08688 3.42784,0 4.84914,-1.08688 1.4213,-1.08688 1.4213,-2.8426 0,-1.17048 -0.66885,-2.09015 -0.58524,-0.91966 -2.67539,-2.09015 -2.09015,-1.17048 -6.27044,-3.00981 -4.01308,-1.83933 -6.68847,-3.59505 -2.59179,-1.83933 -3.92948,-4.34751 -1.25409,-2.59178 -1.25409,-6.43765 0,-6.35405 4.84914,-9.53108 4.93275,-3.17702 12.95892,-3.17702 4.18029,0 7.94256,0.83606 3.84587,0.83606 7.85895,2.75899 l -3.76226,8.94583 q -2.25736,-1.00327 -4.34751,-1.75572 -2.09015,-0.75245 -4.01308,-1.17048 -1.92294,-0.41803 -3.84587,-0.41803 -2.42457,0 -3.76227,0.75245 -1.25409,0.75245 -1.25409,2.25736 0,1.08688 0.66885,2.00654 0.75245,0.83606 2.75899,1.83933 2.00655,1.00327 5.85242,2.67539 3.84587,1.58851 6.52126,3.34424 2.75899,1.67211 4.18029,4.2639 1.4213,2.50817 1.4213,6.60486 z"
         style="font-size:83.6059px;-inkscape-font-specification:'sans-serif, @CTGR=46,wght=700';font-variation-settings:'CTGR' 46, 'wght' 700"
         id="path1905" />
      <path
         d="m 700.00435,535.20715 q 6.27045,0 10.78517,2.42457 4.51471,2.42457 6.93929,7.0229 2.50817,4.59832 2.50817,11.28679 v 6.01963 h -28.426 q 0.16721,5.26717 2.9262,8.27698 2.8426,3.00981 7.85896,3.00981 4.2639,0 7.77535,-0.83605 3.51144,-0.91967 7.27371,-2.759 v 9.61468 q -3.26063,1.67212 -6.93929,2.42457 -3.67866,0.83606 -8.94583,0.83606 -6.77208,0 -11.95565,-2.50818 -5.09996,-2.59178 -8.10977,-7.77535 -2.92621,-5.18356 -2.92621,-13.04252 0,-8.02616 2.67539,-13.29334 2.67539,-5.35077 7.44093,-8.02616 4.84914,-2.67539 11.11958,-2.67539 z m 0.16722,8.86222 q -3.26063,0 -5.51799,2.34097 -2.17376,2.34096 -2.59179,7.27371 h 16.21955 q 0,-2.75899 -0.91967,-4.93275 -0.91966,-2.17375 -2.67539,-3.42784 -1.75572,-1.25409 -4.51471,-1.25409 z"
         style="font-size:83.6059px;-inkscape-font-specification:'sans-serif, @CTGR=46,wght=700';font-variation-settings:'CTGR' 46, 'wght' 700"
         id="path1907" />
    </g>
    <g
       aria-label="contract

"
       transform="matrix(0.25681439,0,0,0.23839055,-11.054625,26.808432)"
       id="text465-9"
       style="font-size:40px;line-height:1.25;white-space:pre;shape-inside:url(#rect467-0);display:inline">
      <path
         d="m 321.4368,582.52809 q -6.68847,0 -11.45401,-2.42457 -4.68193,-2.50818 -7.19011,-7.69174 -2.50817,-5.18357 -2.50817,-13.29334 0,-8.36059 2.8426,-13.62777 2.8426,-5.26717 7.85895,-7.77534 5.01636,-2.50818 11.53762,-2.50818 4.43111,0 7.94256,0.91966 3.51145,0.91967 6.10323,2.17376 l -3.84587,9.53107 q -2.759,-1.17048 -5.09996,-1.83933 -2.25736,-0.75245 -4.76554,-0.75245 -3.09342,0 -5.18357,1.58851 -2.09014,1.50491 -3.17702,4.59832 -1.08688,3.00982 -1.08688,7.60814 0,4.51472 1.08688,7.52453 1.17048,2.92621 3.26063,4.43111 2.17375,1.42131 5.09996,1.42131 3.59505,0 6.52126,-1.00328 3.00981,-1.08687 5.76881,-2.9262 v 10.61795 q -2.8426,1.83933 -6.01963,2.59178 -3.09341,0.83606 -7.69174,0.83606 z"
         style="font-size:83.6059px;-inkscape-font-specification:'sans-serif, @CTGR=46,wght=700';font-variation-settings:'CTGR' 46, 'wght' 700"
         id="path1910" />
      <path
         d="m 385.89688,558.78401 q 0,5.6852 -1.5049,10.11632 -1.50491,4.43111 -4.34751,7.52453 -2.75899,3.00981 -6.85568,4.59832 -4.01309,1.50491 -9.02944,1.50491 -4.76554,0 -8.77862,-1.50491 -3.92948,-1.58851 -6.85569,-4.59832 -2.8426,-3.09342 -4.43111,-7.52453 -1.58851,-4.43112 -1.58851,-10.11632 0,-7.60813 2.59178,-12.7917 2.67539,-5.26717 7.60814,-8.02617 4.93275,-2.75899 11.70483,-2.75899 6.27044,0 11.11958,2.75899 4.84914,2.759 7.60814,8.02617 2.75899,5.18357 2.75899,12.7917 z m -30.26533,0 q 0,4.51472 0.83606,7.60814 0.91966,3.00981 2.8426,4.59832 1.92293,1.50491 5.01635,1.50491 3.00981,0 4.84914,-1.50491 1.92294,-1.58851 2.759,-4.59832 0.83606,-3.09342 0.83606,-7.60814 0,-4.51472 -0.83606,-7.52453 -0.83606,-3.00981 -2.759,-4.51472 -1.92293,-1.5049 -4.93275,-1.5049 -4.59832,0 -6.60486,3.42784 -2.00654,3.34423 -2.00654,10.11631 z"
         style="font-size:83.6059px;-inkscape-font-specification:'sans-serif, @CTGR=46,wght=700';font-variation-settings:'CTGR' 46, 'wght' 700"
         id="path1912" />
      <path
         d="m 421.51308,535.20715 q 7.19011,0 11.45401,4.01308 4.3475,3.92948 4.3475,12.7081 v 29.7637 h -12.87531 v -26.67028 q 0,-4.93275 -1.58851,-7.35732 -1.58851,-2.50818 -5.18356,-2.50818 -5.26718,0 -7.19011,3.92948 -1.92294,3.84587 -1.92294,11.11958 v 21.48672 h -12.87531 v -45.64882 h 9.8655 l 1.75572,5.85241 h 0.58525 q 1.5049,-2.34096 3.51144,-3.76227 2.09015,-1.5049 4.68193,-2.17375 2.59179,-0.75245 5.43439,-0.75245 z"
         style="font-size:83.6059px;-inkscape-font-specification:'sans-serif, @CTGR=46,wght=700';font-variation-settings:'CTGR' 46, 'wght' 700"
         id="path1914" />
      <path
         d="m 468.83403,572.57899 q 2.00654,0 3.84587,-0.41803 1.83933,-0.41803 3.67866,-1.00327 v 9.28025 q -2.00654,0.83606 -4.93274,1.4213 -2.84261,0.66885 -6.52127,0.66885 -4.01308,0 -7.1901,-1.33769 -3.17703,-1.3377 -5.01636,-4.59833 -1.83933,-3.34424 -1.83933,-9.19665 v -21.98835 h -5.6852 v -5.26717 l 6.68847,-4.1803 3.67866,-9.61468 h 8.19338 v 9.69829 h 12.12286 v 9.36386 h -12.12286 v 21.98835 q 0,2.59178 1.4213,3.92948 1.4213,1.25409 3.67866,1.25409 z"
         style="font-size:83.6059px;-inkscape-font-specification:'sans-serif, @CTGR=46,wght=700';font-variation-settings:'CTGR' 46, 'wght' 700"
         id="path1916" />
      <path
         d="m 510.46972,535.20715 q 1.00328,0 2.25736,0.0836 1.25409,0.0836 2.00655,0.25082 l -1.00327,11.70483 q -0.66885,-0.16721 -1.75573,-0.25082 -1.08688,-0.16721 -2.25736,-0.16721 -2.09015,0 -4.18029,0.66885 -2.09015,0.58524 -3.76227,1.92293 -1.67212,1.3377 -2.75899,3.59506 -1.00327,2.17375 -1.00327,5.43438 v 23.24244 h -12.87531 v -45.64882 h 9.78189 l 1.92293,7.69174 h 0.58524 q 1.3377,-2.34096 3.26063,-4.2639 1.92294,-1.92294 4.43112,-3.09342 2.50817,-1.17048 5.35077,-1.17048 z"
         style="font-size:83.6059px;-inkscape-font-specification:'sans-serif, @CTGR=46,wght=700';font-variation-settings:'CTGR' 46, 'wght' 700"
         id="path1918" />
      <path
         d="m 539.77016,535.12354 q 8.86222,0 13.62776,4.01309 4.76554,3.92947 4.76554,12.12285 v 30.43255 h -8.94583 l -2.50818,-6.18684 h -0.33442 q -1.92294,2.42457 -3.92948,4.01309 -1.92294,1.58851 -4.51472,2.25736 -2.59178,0.75245 -6.27044,0.75245 -3.92948,0 -7.0229,-1.50491 -3.09342,-1.58851 -4.93275,-4.76553 -1.75572,-3.26063 -1.75572,-8.19338 0,-7.27372 4.93275,-10.70156 4.93274,-3.51145 14.79824,-3.84587 l 7.69174,-0.25082 v -2.00654 q 0,-3.59505 -1.75572,-5.26717 -1.75572,-1.67212 -4.84914,-1.67212 -3.09342,0 -6.27044,1.00327 -3.09342,0.91967 -6.27045,2.34097 l -4.09669,-8.4442 q 3.67866,-1.92293 8.10978,-3.00981 4.51471,-1.08688 9.53107,-1.08688 z m 1.17048,25.58341 q -5.51799,0.16721 -7.69174,2.17375 -2.17375,2.00654 -2.17375,5.26717 0,2.8426 1.5049,4.09669 1.58851,1.17049 4.09669,1.17049 3.59505,0 6.10323,-2.34097 2.59178,-2.42457 2.59178,-6.77208 v -3.76226 z"
         style="font-size:83.6059px;-inkscape-font-specification:'sans-serif, @CTGR=46,wght=700';font-variation-settings:'CTGR' 46, 'wght' 700"
         id="path1920" />
      <path
         d="m 588.8469,582.52809 q -6.68848,0 -11.45401,-2.42457 -4.68193,-2.50818 -7.19011,-7.69174 -2.50818,-5.18357 -2.50818,-13.29334 0,-8.36059 2.8426,-13.62777 2.8426,-5.26717 7.85896,-7.77534 5.01635,-2.50818 11.53761,-2.50818 4.43112,0 7.94256,0.91966 3.51145,0.91967 6.10323,2.17376 l -3.84587,9.53107 q -2.75899,-1.17048 -5.09996,-1.83933 -2.25736,-0.75245 -4.76553,-0.75245 -3.09342,0 -5.18357,1.58851 -2.09015,1.50491 -3.17702,4.59832 -1.08688,3.00982 -1.08688,7.60814 0,4.51472 1.08688,7.52453 1.17048,2.92621 3.26063,4.43111 2.17375,1.42131 5.09996,1.42131 3.59505,0 6.52126,-1.00328 3.00981,-1.08687 5.7688,-2.9262 v 10.61795 q -2.8426,1.83933 -6.01962,2.59178 -3.09342,0.83606 -7.69174,0.83606 z"
         style="font-size:83.6059px;-inkscape-font-specification:'sans-serif, @CTGR=46,wght=700';font-variation-settings:'CTGR' 46, 'wght' 700"
         id="path1922" />
      <path
         d="m 631.90387,572.57899 q 2.00654,0 3.84587,-0.41803 1.83933,-0.41803 3.67866,-1.00327 v 9.28025 q -2.00654,0.83606 -4.93275,1.4213 -2.8426,0.66885 -6.52126,0.66885 -4.01308,0 -7.1901,-1.33769 -3.17703,-1.3377 -5.01636,-4.59833 -1.83933,-3.34424 -1.83933,-9.19665 v -21.98835 h -5.6852 v -5.26717 l 6.68847,-4.1803 3.67866,-9.61468 h 8.19338 v 9.69829 h 12.12286 v 9.36386 h -12.12286 v 21.98835 q 0,2.59178 1.4213,3.92948 1.4213,1.25409 3.67866,1.25409 z"
         style="font-size:83.6059px;-inkscape-font-specification:'sans-serif, @CTGR=46,wght=700';font-variation-settings:'CTGR' 46, 'wght' 700"
         id="path1924" />
    </g>
    <text
       xml:space="preserve"
       style="font-style:normal;font-weight:normal;font-size:10.5833px;line-height:1.25;font-family:sans-serif;fill:#000000;fill-opacity:1;stroke:none;stroke-width:0.264583"
       x="81.923477"
       y="135.02606"
       id="text604"><tspan
         sodipodi:role="line"
         id="tspan602"
         style="stroke-width:0.264583"
         x="81.923477"
         y="135.02606" /></text>
    <text
       xml:space="preserve"
       transform="scale(0.26458333)"
       id="text606"
       style="fill:black;fill-opacity:1;line-height:1.25;stroke:none;font-family:sans-serif;font-style:normal;font-weight:normal;font-size:40px;white-space:pre;shape-inside:url(#rect608)" />
  </g>
</svg>
